#N canvas 1484 770 756 550 12;
#X obj 112 189 ultraleap, f 35;
#X msg 115 13 active 1;
#X listbox 300 246 20 0 0 0 - - - 0;
#X obj 328 218 bng 19 250 50 0 empty empty empty 0 -10 0 12 #fcfcfc #000000 #000000;
#X listbox 273 277 39 0 0 0 - - - 0;
#X listbox 246 306 31 0 0 0 - - - 0;
#X listbox 219 341 31 0 0 0 - - - 0;
#X listbox 191 375 31 0 0 0 - - - 0;
#X obj 112 496 bng 19 250 50 0 empty empty empty 0 -10 0 12 #fcfcfc #000000 #000000;
#X listbox 169 414 31 0 0 0 - - - 0;
#X listbox 141 448 31 0 0 0 - - - 0;
#X msg 114 59 device_index 0;
#X msg 112 149 unit m;
#X text 181 13 Set active to 1 to start streaming data;
#X text 225 57 Select a device by index;
#X text 312 105 Select a device by serial number;
#X text 168 150 m or mm;
#X obj 353 215 print;
#X msg 335 156 dumpall;
#X msg 113 105 device_serial LP92879951874;
#X connect 0 0 8 0;
#X connect 0 1 10 0;
#X connect 0 2 9 0;
#X connect 0 3 7 0;
#X connect 0 4 6 0;
#X connect 0 5 5 0;
#X connect 0 6 4 0;
#X connect 0 7 2 0;
#X connect 0 8 3 0;
#X connect 0 9 17 0;
#X connect 1 0 0 0;
#X connect 11 0 0 0;
#X connect 12 0 0 0;
#X connect 18 0 0 0;
#X connect 19 0 0 0;
